HIERARCHY
ROOT Hips
{
	OFFSET 0.00000 0.00000 0.00000
	CHANNELS 6 Xposition Yposition Zposition Zrotation Yrotation Xrotation 
	JOINT LHipJoint
	{
		OFFSET 0 0 0
		CHANNELS 3 Zrotation Yrotation Xrotation
		JOINT LeftHip
		{
			OFFSET 1.27966 -1.91611 0.81506
			CHANNELS 3 Zrotation Yrotation Xrotation
			JOINT LeftKnee
			{
				OFFSET 2.49511 -6.85528 0.00000
				CHANNELS 3 Zrotation Yrotation Xrotation
				JOINT LeftAnkle
				{
					OFFSET 2.67286 -7.34045 0.00000
					CHANNELS 3 Zrotation Yrotation Xrotation
					JOINT LeftToe
					{
						OFFSET 0.22740 -0.62477 2.32102
						CHANNELS 3 Zrotation Yrotation Xrotation
						End Site
						{
							OFFSET 0.00000 -0.00000 1.20480
						}
					}
				}
			}
		}
	}
	JOINT RHipJoint
	{
		OFFSET 0 0 0
		CHANNELS 3 Zrotation Yrotation Xrotation
		JOINT RightHip
		{
			OFFSET -1.09666 -1.91611 0.81505
			CHANNELS 3 Zrotation Yrotation Xrotation
			JOINT RightKnee
			{
				OFFSET -2.51373 -6.90642 0.00000
				CHANNELS 3 Zrotation Yrotation Xrotation
				JOINT RightAnkle
				{
					OFFSET -2.70173 -7.42295 0.00000
					CHANNELS 3 Zrotation Yrotation Xrotation
					JOINT RightToe
					{
						OFFSET -0.22214 -0.61032 2.18267
						CHANNELS 3 Zrotation Yrotation Xrotation
						End Site
						{
							OFFSET -0.00000 -0.00000 1.13683
						}
					}
				}
			}
		}
	}
	JOINT lowerback
	{
		OFFSET 0 0 0
		CHANNELS 3 Zrotation Yrotation Xrotation
		JOINT Chest
		{
			OFFSET -0.00990 2.16804 -0.08389
			CHANNELS 3 Zrotation Yrotation Xrotation
			JOINT Chest2
			{
				OFFSET 0.06407 2.15456 0.07285
				CHANNELS 3 Zrotation Yrotation Xrotation
				JOINT lowerneck
				{
					OFFSET 0 0 0
					CHANNELS 3 Zrotation Yrotation Xrotation
					JOINT Neck
					{
						OFFSET -0.16931 1.61602 0.24462
						CHANNELS 3 Zrotation Yrotation Xrotation
						JOINT Head
						{
							OFFSET 0.21556 1.63376 -0.33896
							CHANNELS 3 Zrotation Yrotation Xrotation
							End Site
							{
								OFFSET 0.08444 1.69244 -0.14900
							}
						}
					}
				}
				JOINT LeftCollar
				{
					OFFSET 0 0 0
					CHANNELS 3 Zrotation Yrotation Xrotation
					JOINT LeftShoulder
					{
						OFFSET 2.89000 1.40150 -0.54392
CHANNELS 3 Zrotation Xrotation Yrotation
						JOINT LeftElbow
						{
OFFSET 0 -5.107550 0.000000
CHANNELS 3 Zrotation Xrotation Yrotation
							JOINT LeftWrist
							{
OFFSET 0 -3.362530 0.000000
CHANNELS 3 Zrotation Xrotation Yrotation
								JOINT lhand
								{
									OFFSET 0 0 0
CHANNELS 3 Zrotation Xrotation Yrotation
									JOINT LFingers
									{
OFFSET 0 -0.619090 0.000000
CHANNELS 3 Zrotation Xrotation Yrotation
										End Site
										{
OFFSET 0 -0.499120 0.000000
										}
									}
								}
								JOINT LThumb
								{
OFFSET 0 0.000000 0.000000
CHANNELS 3 Zrotation Xrotation Yrotation
									End Site
									{
OFFSET 0 -0.506750 0.506750
									}
								}
							}
						}
					}
				}
				JOINT RightCollar
				{
					OFFSET 0 0 0
					CHANNELS 3 Zrotation Yrotation Xrotation
					JOINT RightShoulder
					{
						OFFSET -2.65771 1.70968 -0.54312
CHANNELS 3 Zrotation Xrotation Yrotation
						JOINT RightElbow
						{
OFFSET 0 -5.273870 0.000000
CHANNELS 3 Zrotation Xrotation Yrotation
							JOINT RightWrist
							{
OFFSET 0 -3.401440 0.000000
CHANNELS 3 Zrotation Xrotation Yrotation
								JOINT rhand
								{
									OFFSET 0 0 0
CHANNELS 3 Zrotation Xrotation Yrotation
									JOINT RFingers
									{
OFFSET 0 -0.742820 0.000000
CHANNELS 3 Zrotation Xrotation Yrotation
										End Site
										{
OFFSET 0 -0.598880 0.000000
										}
									}
								}
								JOINT RThumb
								{
OFFSET 0 0.000000 0.000000
CHANNELS 3 Zrotation Xrotation Yrotation
									End Site
									{
OFFSET 0 -0.608030 0.608030
									}
								}
							}
						}
					}
				}
			}
		}
	}
}
MOTION
Frames: 5
Frame Time: 0.008333333333333333
6.950400 18.049800 -0.255200 -3.045700 -16.334700 -0.752100 0.000000 0.000000 0.000000 -16.093800 -0.037400 -11.568400 2.303800 9.472100 27.283400 0.089300 -10.880400 -8.931100 0.411500 -4.117800 -11.408500 0.000000 0.000000 0.000000 18.718300 -7.011600 -15.503400 -8.414300 -16.415700 54.041600 -0.318700 -1.172500 -11.154900 -0.890000 6.013500 -16.823500 -4.490000 -0.753200 11.685400 1.643700 -1.500900 0.627800 4.518300 -0.602800 -5.740900 -23.713100 -14.724900 1.429400 22.437500 -22.274800 8.517600 8.903700 -11.066800 7.700700 0.000000 0.000000 0.000000 8.072800 4.986000 -11.851000 19.404600 -29.918300 5.231100 20.672800 1.609500 -20.447400 0.000000 0.000000 0.000000 -7.125000 0.000000 0.000000 -7.962700 51.535500 1.288600 0.000000 0.000000 0.000000 -3.182900 5.459700 6.102400 -12.499900 -20.550100 -2.274700 -19.848600 6.308700 -14.139700 0.000000 0.000000 0.000000 7.125000 0.000000 -0.000000 5.184600 15.028600 3.678200
7.405441 17.903829 -1.198584 -4.005041 -19.812327 -0.389483 0.000000 0.000000 0.000000 -15.187299 -1.261123 -17.031593 3.064743 10.799027 31.605101 0.359111 -8.356175 -11.374124 0.686728 -5.298002 -14.760624 0.000000 0.000000 0.000000 24.455596 -9.231375 0.492773 -3.787800 -11.872043 35.281439 -0.441040 4.863572 -11.824129 -2.011979 8.890966 -25.454829 -0.548526 0.552722 9.667888 0.876355 0.723663 -0.520753 1.119692 0.386412 -5.993337 -25.013763 -14.615245 1.609297 22.198683 -22.494196 10.532547 8.996908 -11.224503 8.500578 0.000000 0.000000 0.000000 6.481239 8.195332 -4.229155 17.571441 -27.604935 4.348885 19.443284 2.495052 -27.956569 0.000000 0.000000 0.000000 -7.125000 0.000000 0.000000 -12.562943 58.909908 4.314085 0.000000 0.000000 0.000000 -4.073096 4.511208 17.553549 -15.413503 -24.718938 -3.397001 -20.195431 1.458565 -13.145367 0.000000 0.000000 0.000000 7.125000 0.000000 0.000000 4.912138 16.040201 3.376267
7.961947 17.702518 -2.437224 -6.401856 -25.209861 2.504922 0.000000 0.000000 0.000000 -12.180901 -2.191515 -26.892038 4.253595 12.490475 37.489868 0.463046 -4.632828 -12.107272 0.698240 -5.341071 -14.883947 0.000000 0.000000 0.000000 28.873807 -5.470346 5.778847 -0.989845 -6.332063 17.751029 -1.561493 2.126953 -23.040530 -0.821663 5.781156 -16.151629 4.168446 1.635044 10.860712 1.571207 2.844947 -1.210860 -1.165354 1.251240 -7.265576 -24.630534 -14.616710 -0.273765 20.905183 -21.582491 9.308595 8.501784 -10.682277 7.978520 0.000000 0.000000 0.000000 1.652602 9.623293 -1.343585 16.187332 -25.774063 3.727094 16.731912 6.729454 -30.857058 0.000000 0.000000 0.000000 -7.125000 0.000000 0.000000 -17.454662 61.091942 6.963554 0.000000 0.000000 0.000000 -5.298369 -1.807183 23.426587 -17.521261 -27.539859 -4.325590 -21.685722 -0.496950 -8.929435 0.000000 0.000000 0.000000 7.125000 0.000000 0.000000 3.753761 20.392198 2.215190
8.365154 17.804462 -3.285044 -7.118607 -26.587716 2.219009 0.000000 0.000000 0.000000 -11.428897 -2.924892 -26.679016 3.409867 11.330659 33.403502 0.319185 -2.243183 -10.130463 0.873941 -5.959780 -16.667827 0.000000 0.000000 0.000000 29.551049 -3.525664 2.848674 -1.156280 -6.826953 19.203716 -1.510315 2.306641 -22.606778 -1.230995 7.036127 -19.822525 3.764668 0.751875 12.264143 3.215723 1.734005 0.144840 0.965146 0.768935 -6.731712 -22.641104 -13.797515 -3.326550 18.359923 -19.488477 10.042844 7.537832 -9.521574 7.725847 0.000000 0.000000 0.000000 -3.820481 9.223744 -3.003855 14.164178 -22.968915 2.891862 14.319188 11.212930 -28.866470 0.000000 0.000000 0.000000 -7.125000 0.000000 0.000000 -18.585636 58.639309 6.337288 0.000000 0.000000 0.000000 -5.518148 -7.317561 26.681326 -17.549713 -27.576725 -4.338802 -21.695523 -0.288470 -8.500925 0.000000 0.000000 0.000000 7.125000 0.000000 0.000000 3.739234 20.849942 2.167960
8.580651 17.787470 -3.652654 -6.483609 -24.392742 0.762099 0.000000 0.000000 0.000000 -12.504526 -1.616679 -26.233792 2.935900 10.590600 30.911211 0.345241 -2.199095 -10.554920 1.168251 -6.861106 -19.304587 0.000000 0.000000 0.000000 30.130413 -0.868536 1.216279 -1.629604 -8.047720 22.859176 -1.292301 -2.273824 -22.402943 -0.452409 4.314211 -11.962560 3.245555 -0.186228 12.995492 3.599932 0.439554 0.880081 1.892303 0.162157 -6.375993 -23.078855 -12.755165 -3.013350 17.567108 -18.056770 11.158530 7.622133 -8.913830 7.675801 0.000000 0.000000 0.000000 -3.785030 9.571721 -9.410988 16.077034 -25.624881 3.679308 11.226771 10.138149 -25.754965 0.000000 0.000000 0.000000 -7.125000 0.000000 0.000000 -19.764013 55.057922 5.036801 0.000000 0.000000 0.000000 -4.593663 -3.746770 27.487139 -17.760005 -27.848698 -4.436579 -21.364224 -1.535700 -10.036689 0.000000 0.000000 0.000000 7.125000 0.000000 0.000000 4.006650 19.233360 2.469120
